<svg width="60" height="60" viewBox="0 0 64 64" fill="none" xmlns="http://www.w3.org/2000/svg">
<g clip-path="url(#clip0_15_252)">
<path fill-rule="evenodd" clip-rule="evenodd" d="M44.4534 35.0133C48.1067 37.4933 50.6667 40.8533 50.6667 45.3333V53.3333H61.3334V45.3333C61.3334 39.52 51.8134 36.08 44.4534 35.0133Z" fill="white"/>
<path d="M24 32C29.8911 32 34.6667 27.2244 34.6667 21.3333C34.6667 15.4423 29.8911 10.6667 24 10.6667C18.109 10.6667 13.3334 15.4423 13.3334 21.3333C13.3334 27.2244 18.109 32 24 32Z" fill="white"/>
<path fill-rule="evenodd" clip-rule="evenodd" d="M40 32C45.8934 32 50.6667 27.2267 50.6667 21.3333C50.6667 15.44 45.8934 10.6667 40 10.6667C38.7467 10.6667 37.5734 10.9333 36.4534 11.3067C38.6667 14.0533 40 17.5467 40 21.3333C40 25.12 38.6667 28.6133 36.4534 31.36C37.5734 31.7333 38.7467 32 40 32Z" fill="white"/>
<path fill-rule="evenodd" clip-rule="evenodd" d="M24 34.6667C16.88 34.6667 2.66669 38.24 2.66669 45.3333V53.3333H45.3334V45.3333C45.3334 38.24 31.12 34.6667 24 34.6667Z" fill="white"/>
</g>
<defs>
<clipPath id="clip0_15_252">
<rect width="60" height="60" fill="white"/>
</clipPath>
</defs>
</svg>
