<svg width="50" height="50" viewBox="0 0 50 50" fill="none" xmlns="http://www.w3.org/2000/svg">
<path d="M29.5 10C29.5 15.2489 25.2489 19.5 20 19.5C14.7511 19.5 10.5 15.2489 10.5 10C10.5 4.75114 14.7511 0.5 20 0.5C25.2489 0.5 29.5 4.75114 29.5 10ZM0.5 35C0.5 33.5211 1.23685 32.1888 2.52544 30.9995C3.81743 29.807 5.63051 28.7925 7.68281 27.9704C11.7882 26.3258 16.725 25.5 20 25.5C23.275 25.5 28.2118 26.3258 32.3172 27.9704C34.3695 28.7925 36.1826 29.807 37.4746 30.9995C38.7631 32.1888 39.5 33.5211 39.5 35V39.5H0.5V35Z" fill="white" stroke="white"/>
</svg>
