<svg width="24" height="25" viewBox="0 0 24 25" fill="none" xmlns="http://www.w3.org/2000/svg">
<path d="M1.79839 25C1.42413 24.9831 1.06514 24.8462 0.774136 24.6095C0.493596 24.4254 0.273164 24.1627 0.140232 23.854C0.00729979 23.5452 -0.0322724 23.2041 0.0264328 22.873L21.8737 0.082203C21.9823 0.0294038 22.1012 0.00133388 22.2219 0C22.5962 0.0169109 22.9552 0.153765 23.2462 0.390464C23.5211 0.579067 23.7359 0.843214 23.8649 1.15123C23.9939 1.45924 24.0316 1.79804 23.9734 2.127L2.14663 24.9178C2.03757 24.9694 1.91893 24.9974 1.79839 25Z" fill="#847A7A"/>
<path d="M22.0566 0.344784C22.383 0.36433 22.6944 0.488725 22.945 0.699608C23.1798 0.861253 23.3678 1.08235 23.4902 1.34049C23.6125 1.59864 23.6647 1.88466 23.6415 2.16959L2.17994 24.6148C2.09644 24.6293 2.01107 24.6293 1.92757 24.6148C1.60867 24.6192 1.29696 24.5195 1.03922 24.3309C0.802084 24.1691 0.612412 23.9465 0.489921 23.6862C0.367429 23.426 0.316588 23.1375 0.342683 22.8508L10.8514 11.8614L21.8143 0.395473C21.8923 0.367044 21.9739 0.349974 22.0566 0.344784ZM22.0566 9.72872e-05C21.8918 -0.00219616 21.7289 0.0360913 21.5822 0.111613L0.0398382 22.648C-0.037961 23.016 -0.00124422 23.3992 0.145015 23.7455C0.291274 24.0919 0.540006 24.3847 0.857518 24.5843C1.1729 24.8472 1.56826 24.9938 1.97804 25C2.13948 25.0006 2.29872 24.9624 2.4424 24.8885L23.9544 2.36221C24.0365 1.99792 24.0072 1.61722 23.8703 1.26993C23.7334 0.922637 23.4954 0.624927 23.1872 0.415748C22.8653 0.157633 22.4684 0.0117382 22.0566 9.72872e-05Z" fill="#847A7A"/>
<path d="M22.087 24.9796C21.9408 24.9804 21.7962 24.9492 21.6631 24.888L13.0648 15.8758L0.0665124 2.28125C-0.0138608 2.01961 -0.0215459 1.74074 0.0442938 1.47499C0.110134 1.20925 0.246974 0.966833 0.439912 0.774139C0.62332 0.547805 0.849795 0.36083 1.10598 0.224245C1.37286 0.0888294 1.66531 0.0124511 1.96379 0.000214542C2.10374 -0.00293004 2.24233 0.0285349 2.36746 0.0918635L13.2667 11.5072L23.9338 22.7088C24.0139 22.9721 24.0215 23.2524 23.9557 23.5197C23.8899 23.787 23.7533 24.0312 23.5604 24.2261C23.3799 24.4494 23.1561 24.6333 22.9028 24.7664C22.6494 24.8994 22.3718 24.9789 22.087 25V24.9796Z" fill="#847A7A"/>
<path d="M1.99577 0.0913149C2.13419 0.0876611 2.27166 0.115399 2.39804 0.172484L23.8488 22.6765C23.9256 22.9303 23.9325 23.2003 23.8687 23.4577C23.805 23.7151 23.6729 23.9502 23.4868 24.1376C23.3136 24.3602 23.0962 24.5438 22.8485 24.6765C22.6009 24.8093 22.3284 24.8884 22.0487 24.9087C21.9139 24.9084 21.7805 24.8808 21.6565 24.8275L10.8959 13.5653L0.145355 2.32346C0.0802212 2.06719 0.0802212 1.79848 0.145355 1.54221C0.211983 1.3023 0.33635 1.08272 0.507394 0.903003C0.681494 0.66879 0.900342 0.472144 1.15102 0.324675C1.41219 0.185227 1.70062 0.105551 1.99577 0.0913149ZM1.99577 0C1.70497 0.0212775 1.42125 0.100598 1.16107 0.23336C0.885966 0.365248 0.642389 0.555613 0.447054 0.791396C0.247818 0.993746 0.107689 1.24756 0.0420496 1.52499C-0.0235902 1.80241 -0.0122038 2.09272 0.0749591 2.36404L21.5961 24.9087C21.736 24.969 21.8865 25 22.0386 25C22.3294 24.9787 22.6131 24.8994 22.8733 24.7666C23.1339 24.6299 23.3634 24.4399 23.5471 24.2086C23.7503 24.0089 23.8932 23.7551 23.959 23.4767C24.0249 23.1983 24.0111 22.9067 23.9192 22.636C16.7522 15.1211 9.57846 7.60958 2.39804 0.101461C2.27239 0.0398161 2.13539 0.0052614 1.99577 0Z" fill="#847A7A"/>
</svg>
